<svg xmlns="http://www.w3.org/2000/svg" viewBox="0 1000 4250 10" style="enable-background:new 0 0 4289.14 1905.34"><g id="Laag_3"><path class="st3" d="M1655.33 1153.95s-.5-.46 10.59-6.69 75.68-44.92 75.68-44.92 19.01-10.83 26.84-15.56c0 0 4.66-2.11 20.79-18.57s35.52-40.16 40.45-45.66c4.94-5.5 13.66-11.34 23.6-15.27 0 0 15.19-6.42 25.6-8.64 10.41-2.22 20.49-11.21 25.31-15.73s16.72-15.84 20.75-19.24c4.03-3.4 14.86-12.19 22.45-22.46 7.58-10.27 18.88-28.83 21.51-34.49s8.71-16.21 8.67-25.48-.82-31.21.28-44.66c1.11-13.44.59-20.46 4.78-31.01s22.47-50.49 26.35-57.32c3.88-6.84 18.71-33.16 25.8-42.93s22.85-32.68 32.73-41.8c9.88-9.12 26.03-25.8 40.95-27.95s77.14-4.91 96.08-6.49c18.94-1.57 90.34-6.48 113.58-8 23.24-1.52 147.21-8.77 155.13-9.51s88.15-2.76 127.23-17.35c39.08-14.59 92.22-41.03 109.44-53.5s47.48-34.81 84.35-40.72c0 0 34.8-5.15 69.07-24.93 34.28-19.78 36.9-23.45 65.93-40.74 29.02-17.29 64.19-39.07 86.47-49.52 0 0 12.4-6.08 16.8-8.88 0 0-1.1-12.48-25.66-35.94-10.07-9.62 18-35.55 25.58-41.08 0 0 19.81-16.81 22.44-42.55 2.63-25.74 3.08-26.68 3.11-27.01.03-.33 35.65 50.67 51.35 59.98 15.7 9.31 53.27 30.85 61.98 42.44s17.86 28.87 16.2 43.35c0 0-1.01 1.1 4.98 1.79s58.46 11.69 66.25 17.78c7.8 6.08 29.07 23.54 36.47 31.12 7.4 7.58 11.92 19.14 13.1 28.1s2.83 25.26.83 31.1c0 0 23.25 6.98 40.39 17.23s31.81 28.49 35.61 38.63c3.8 10.15 3.35 21.68-2.17 31.31-5.52 9.63-18.09 20.1-18.09 20.1s-31.88-2.01-57.34-8.92-24.51-13.3-35.93-8.99c-11.42 4.31-18.56.18-4.64 12.49 13.92 12.31 43.95 28.45 45.6 42.87 1.65 14.42 4.3 26.87-2.52 35.35 0 0-16.78 23.12-50.78 24.17-34 1.05-45.79-14.43-53.59-21.39-7.8-6.97-24-34.98-51.33-35.26-27.33-.28-44.07 11.92-44.98 35.1 0 0-.71 118.31-10.64 170.13 0 0 137.25 7.56 164.64 11.45 22 3.12 87.23 95.96 160.77 128.11 0 0-26.29 35.37-38.97 43.33s-15.18 9.14-37.24 3.95c-22.06-5.19-33.84-23.02-49.58-42.19-15.74-19.17-52.38-56.51-63.28-70.1 0 0-1.82-5.29-6.38-2.13-4.56 3.15-31.59 2.84-54.64 19.02s-30.58 18.33-29.62 22.12c.96 3.79 7.8 76.08 8.08 109.36.29 33.28 7.99 65.19-12.11 74.52-15.62 7.25-24.21-3.45-30.46-14.32 0 0-10.48-23.05-14.73-30.16-4.26-7.11-2.62-106.67-4.31-113.04-1.69-6.37-4.39-14.63-14.75-16.59s-26.38-10.43-31.78-14.36c-5.4-3.93-21.95-10.58-34.1-12.42s-79.98-15.49-106.93-13.3c-26.95 2.19-35.42 1.88-65.58 7.02-30.16 5.14-96.78 17.33-114.74 19.01s-86.18 7.74-121.56 8.3-42.67 6.45-92.42-9.98-121.35-48.17-147.86-47.91c-26.51.26-49.56 9.38-66.75 23.29-17.2 13.91-90.38 79.64-135.03 99.51s-66.68 29.69-95.63 35.78c-28.95 6.08-71.23 28.29-90.96 46.32-19.73 18.03-27.14 23.65-69.17 71.78s-103.4 118.01-103.4 118.01-2.95 4.52-8.81-5.87c-5.87-10.39-7.75-22.74-5.21-29.51 2.54-6.77 18.54-36.48 24.7-43.94 6.15-7.46 27.64-35 30.81-41.47 3.17-6.48 17.2-26.71 21.96-54.63 0 0-48.51 11.19-58.02 15.17-9.51 3.98-15.74 6.35-20.16 10.26-4.42 3.9-48.91 37.62-58.64 43.57-9.73 5.94-15.28 6.19-24.7 7.53-9.42 1.34-23.76 3.22-34.34 3.11-10.58-.11-12.6 2.08-13.09-3.27-.46-5.41-2.57-31.11.56-39.21zM999.44 467.97c29.66 3.66 107.38 21.28 144.81 31.42 0 0 67.44 23.38 135.21 23.7s136.42-8.54 179.5-42.16 54.78-40.96 79.52-37.91c24.74 3.05 81.88 4.07 100.79 1.38 18.92-2.69 49.97 6.16 66.65 33.84 16.68 27.67 21.71 39.85 32.41 42.67 10.7 2.83 80.92 24.04 83.6 34.92 2.68 10.88 6.64 31.66-8.39 35.48-15.04 3.82-62.14 11.07-80.51 9.31 0 0 7.77 26.58 28.14 40.64s-7.13 25.24-16.71 29.59c-9.58 4.34-20.52 3.5-46.38-2.71s-30.87-10.34-38.3-15.27c-7.43-4.93-14.29-6.28-23.63-7.94-9.34-1.65-34.51-1.24-52.72 16.1s-183.38 159.22-198.26 177.98c0 0-3.77 2.05 7.69 10.99 11.45 8.95 35.13 41 36.82 55.78 1.69 14.78.72 22.69-9.29 30.5-10 7.81-23.01 31.82-41.05 39.64s-35.43 2.16-49.78.39c-14.35-1.77-67.09-8.81-96.18-55.06-26.04-41.39 92.99 3.6 113.55-12.45 0 0-35.15-29.95-45.39-37.91-10.24-7.96-7.25-6.42-32.94-13.94-25.69-7.52-46.16-20.76-51.16-12.84s-47.12 58.99-52 98.57c0 0 .02 2.51 14.09 6.59 14.06 4.08 29.24 12.74 44.58 14.63 15.34 1.89 41.88 5.26 42.39 5.23.51-.03 18.45 20.1 18.45 20.1s-26.16 36.96-52.22 33.75c-26.06-3.21-59.28-14.84-75.49-20.53-16.21-5.68-16.95-2.42-22.5 1.91-5.56 4.34-9.51 6.53-9.51 6.53s59.94 50.25 63.19 57.85c3.25 7.6-2.26 14.29-23.36 19.72s-28.64 5.51-54.53 2.32-84.6-55.3-94.53-63.06c-9.93-7.75-24.81-9.25-48.56 2.72-23.75 11.97-32.21 15.45-36.64 18.76-4.43 3.31-10.68-.31-9.31-11.36s14.78-49.25 32.01-62.69c17.23-13.45 42.95-15.63 42.95-15.63s-56.93-77.34-90.39-115.63c-33.45-38.28-93-88.99-117.56-107.09-24.56-18.1-18.51-49.5-16.83-67.21 1.68-17.71 9.94-31.76-2.9-44.39-12.84-12.63-17.51-30.46-45.55-24.37-28.04 6.09-41.43 10.13-55.62 8.38-14.18-1.75-56.63-16.02-37.19-29.7 19.43-13.68 28.84-22.06 61.78-23.02 32.94-.96 112.87 12.08 116.84 7.04s44-64.9 96.03-83.6c52.01-18.69 94.38-11.96 94.38-11.96zM78.27 1795.34v-173.4h40.43c23.13 0 41.14 6.22 54.02 18.64 16.92 16.25 25.38 38.97 25.38 68.17 0 28.75-7.15 50.95-21.45 66.6-12.2 13.33-30.4 19.99-54.58 19.99h-43.8zm46.83-41.89c16.77-.82 25.16-15.27 25.16-43.35 0-13.85-2.13-24.78-6.4-32.79-4.27-8.09-10.03-12.13-17.29-12.13h-1.46v88.27zM218.09 1795.34v-173.4h87.04v40.77h-40.21v25.27h36.05v39.19h-36.05v26.5h40.21v41.67h-87.04zM517.6 1795.34h-50.65l-23.13-61.77c-.22-1.05-.62-2.43-1.18-4.16-.56-1.72-1.25-3.78-2.08-6.18l.34 11.46v60.64h-46.61v-173.4h47.95c21.11 0 36.91 4.16 47.39 12.47 13.33 10.63 19.99 25.76 19.99 45.37 0 20.96-8.95 35.45-26.84 43.46l34.82 72.11zm-76.48-93.1h3.14c5.39 0 9.88-2.06 13.48-6.18 3.59-4.12 5.39-9.36 5.39-15.72 0-12.95-6.78-19.43-20.33-19.43h-1.68v41.33zM533.1 1795.34v-173.4h87.04v40.77h-40.21v25.27h36.05v39.19h-36.05v26.5h40.21v41.67H533.1zM640.13 1795.34v-173.4h44.7l23.47 60.87c1.27 3.59 2.71 7.71 4.32 12.35 1.61 4.64 3.39 10 5.33 16.06l4.83 15.27c-1.72-15.05-3.03-27.92-3.93-38.63-.9-10.71-1.35-19.69-1.35-26.95v-38.97h44.7v173.4h-44.7l-23.58-63.79c-2.47-6.81-4.7-13.2-6.68-19.15-1.98-5.95-3.73-11.62-5.22-17.01.97 12.2 1.68 22.84 2.13 31.89.45 9.06.67 17 .67 23.81v44.25h-44.69zM786.46 1795.34v-173.4h44.7l23.47 60.87c1.27 3.59 2.71 7.71 4.32 12.35 1.61 4.64 3.39 10 5.33 16.06l4.83 15.27c-1.72-15.05-3.03-27.92-3.93-38.63-.9-10.71-1.35-19.69-1.35-26.95v-38.97h44.7v173.4h-44.7l-23.58-63.79c-2.47-6.81-4.7-13.2-6.68-19.15-1.98-5.95-3.73-11.62-5.22-17.01.97 12.2 1.68 22.84 2.13 31.89.45 9.06.67 17 .67 23.81v44.25h-44.69zM932.79 1795.34v-173.4h87.04v40.77h-40.21v25.27h36.05v39.19h-36.05v26.5h40.21v41.67h-87.04zM1039.82 1795.34v-173.4h44.7l23.47 60.87c1.27 3.59 2.71 7.71 4.32 12.35 1.61 4.64 3.39 10 5.33 16.06l4.83 15.27c-1.72-15.05-3.03-27.92-3.93-38.63-.9-10.71-1.35-19.69-1.35-26.95v-38.97h44.7v173.4h-44.7l-23.58-63.79c-2.47-6.81-4.7-13.2-6.68-19.15-1.98-5.95-3.73-11.62-5.22-17.01.97 12.2 1.68 22.84 2.13 31.89.45 9.06.67 17 .67 23.81v44.25h-44.69zM1186.15 1795.34v-173.4h40.43c23.13 0 41.14 6.22 54.02 18.64 16.92 16.25 25.38 38.97 25.38 68.17 0 28.75-7.15 50.95-21.45 66.6-12.2 13.33-30.4 19.99-54.58 19.99h-43.8zm46.83-41.89c16.77-.82 25.16-15.27 25.16-43.35 0-13.85-2.13-24.78-6.4-32.79-4.27-8.09-10.03-12.13-17.29-12.13h-1.46v88.27zM1325.97 1795.34v-173.4h87.04v40.77h-40.21v25.27h36.05v39.19h-36.05v26.5h40.21v41.67h-87.04zM1625.49 1795.34h-50.65l-23.13-61.77c-.22-1.05-.62-2.43-1.18-4.16-.56-1.72-1.25-3.78-2.08-6.18l.34 11.46v60.64h-46.61v-173.4h47.95c21.11 0 36.91 4.16 47.39 12.47 13.33 10.63 19.99 25.76 19.99 45.37 0 20.96-8.95 35.45-26.84 43.46l34.82 72.11zm-76.48-93.1h3.14c5.39 0 9.88-2.06 13.48-6.18 3.59-4.12 5.39-9.36 5.39-15.72 0-12.95-6.78-19.43-20.33-19.43h-1.68v41.33zM1765.87 1795.34h-48.4l-3.48-22.01h-31.56l-3.82 22.01h-48.4l41.67-173.4h57.28l36.71 173.4zm-57.39-59.18l-3.03-20.21c-.08-.07-.22-1.08-.45-3.03-.15-1.65-.94-8.16-2.36-19.54-.15-1.27-.34-3.01-.56-5.22-.22-2.21-.52-5-.9-8.37l-1.46-16.4c-.15 1.57-.36 3.33-.62 5.28-.26 1.95-.54 4.08-.84 6.4-.52 4.64-.9 7.86-1.12 9.66s-.38 2.88-.45 3.26l-3.26 21-4.72 27.18h19.77zM1906.7 1795.34h-50.54l-31.11-79.96 1.24 79.96h-46.83v-173.4h46.83l-1.24 74.35 27.63-74.35h49.41l-37.4 83.67 42.01 89.73zM2047.42 1795.34h-50.54l-31.11-79.96 1.24 79.96h-46.83v-173.4h46.83l-1.24 74.35 27.63-74.35h49.41l-37.4 83.67 42.01 89.73zM2060.89 1795.34v-173.4h87.04v40.77h-40.21v25.27h36.05v39.19h-36.05v26.5h40.21v41.67h-87.04zM2291.23 1795.34h-50.65l-23.13-61.77c-.22-1.05-.62-2.43-1.18-4.16-.56-1.72-1.25-3.78-2.08-6.18l.34 11.46v60.64h-46.61v-173.4h47.95c21.11 0 36.91 4.16 47.39 12.47 13.33 10.63 19.99 25.76 19.99 45.37 0 20.96-8.95 35.45-26.84 43.46l34.82 72.11zm-76.48-93.1h3.14c5.39 0 9.88-2.06 13.48-6.18 3.59-4.12 5.39-9.36 5.39-15.72 0-12.95-6.78-19.43-20.33-19.43h-1.68v41.33zM2303.02 1791.08v-54.47c9.21 12.58 19.17 18.87 29.87 18.87 4.04 0 7.34-1.07 9.88-3.2 2.54-2.13 3.82-4.81 3.82-8.03 0-4.64-2.77-9.17-8.31-13.59l-7.64-5.95c-5.09-3.82-9.43-7.62-13.03-11.4-3.59-3.78-6.51-7.67-8.76-11.68-2.25-4-3.89-8.14-4.94-12.41-1.05-4.27-1.57-8.76-1.57-13.48 0-8.09 1.87-16.55 5.62-25.38 1.87-4.12 4.04-7.88 6.51-11.29 2.47-3.41 5.32-6.42 8.54-9.04 8.83-7.49 19.5-11.23 32.01-11.23 11.16 0 22.39 2.96 33.69 8.87v53.01c-3.82-5.91-8.16-10.57-13.03-13.98-4.87-3.41-9.66-5.11-14.38-5.11-3.59 0-6.55 1.05-8.87 3.14-2.4 2.02-3.59 4.46-3.59 7.3 0 4.64 3.18 9.25 9.55 13.81l7.41 5.5c9.88 7.11 16.96 14.41 21.23 21.9 4.34 7.49 6.51 16.25 6.51 26.28 0 17.07-5.21 31.15-15.61 42.23-10.41 11.08-23.58 16.62-39.53 16.62-11.01.01-22.8-2.43-35.38-7.29zM2482.26 1621.95h23.36v67.83h34.25v-67.83h23.36v173.4h-23.36v-85.8h-34.25v85.8h-23.36v-173.4zM2676.77 1712.91c0 30.62-3.41 52.37-10.22 65.25-6.81 12.88-18.23 19.32-34.25 19.32-16.85 0-28.71-6.92-35.6-20.78-6.81-13.55-10.22-37.62-10.22-72.21 0-30.84 3.37-52.67 10.11-65.47 6.81-12.88 18.34-19.32 34.59-19.32 14.52 0 25.31 4.98 32.34 14.94 4.64 6.67 8.01 16.13 10.11 28.41 2.09 11.38 3.14 28 3.14 49.86zm-24.48 2.47c0-30.02-1.35-49.94-4.04-59.75-2.7-9.88-8.2-14.82-16.51-14.82s-13.85 4.53-16.62 13.59c-2.7 9.14-4.04 27.48-4.04 55.03 0 25.38 1.42 42.98 4.27 52.78 2.92 9.28 8.38 13.93 16.4 13.93 7.86 0 13.25-4.34 16.17-13.03 2.91-8.61 4.37-24.52 4.37-47.73zM2699.91 1621.95h21.79l23.25 69.18c6.74 19.54 12.69 40.39 17.86 62.55-1.87-13.4-3.26-25.53-4.16-36.39-.9-10.85-1.35-21.07-1.35-30.66v-64.69h23.47v173.4h-21.9l-26.17-78.05c-2.4-7.26-4.66-14.71-6.79-22.35-2.13-7.64-4.1-15.65-5.9-24.03-.15-1.05-.39-2.32-.73-3.82-.34-1.5-.73-3.22-1.18-5.17.22 1.95.41 3.61.56 5 .15 1.39.26 2.57.34 3.54l1.24 17.63 1.24 21.45c.07 1.2.13 2.66.17 4.38.04 1.72.06 3.67.06 5.84l1.24 75.58h-23.02v-173.39zM2807.5 1621.95h28.75c8.76 0 16.13.97 22.12 2.92 5.54 1.87 10.48 5.21 14.82 10 6.51 7.19 11.16 16.55 13.93 28.08 2.77 11.16 4.16 27.14 4.16 47.95 0 19.09-1.54 34.67-4.6 46.72-3 11.53-7.94 20.33-14.82 26.39-8.46 7.56-23.62 11.34-45.48 11.34h-18.87v-173.4zm23.36 152.95c14.22 0 23.73-4.3 28.53-12.92 4.94-8.61 7.41-25.34 7.41-50.2 0-26.73-2.36-45.11-7.08-55.14-4.72-10.03-13.36-15.05-25.94-15.05h-2.92v133.31zM2914.52 1621.95h62.1v19.77h-38.75v54.92h34.37v19.77h-34.37v59.18h38.75v19.77h-62.1v-173.41zM2998.08 1621.95h21.79l23.25 69.18c6.74 19.54 12.69 40.39 17.86 62.55-1.87-13.4-3.26-25.53-4.16-36.39-.9-10.85-1.35-21.07-1.35-30.66v-64.69h23.47v173.4h-21.9l-26.17-78.05c-2.4-7.26-4.66-14.71-6.79-22.35-2.13-7.64-4.1-15.65-5.9-24.03-.15-1.05-.39-2.32-.73-3.82-.34-1.5-.73-3.22-1.18-5.17.22 1.95.41 3.61.56 5 .15 1.39.26 2.57.34 3.54l1.24 17.63 1.24 21.45c.07 1.2.13 2.66.17 4.38.04 1.72.06 3.67.06 5.84l1.24 75.58h-23.02v-173.39zM3105.67 1621.95h22.91v122.52c0 12.5 1.12 20.82 3.37 24.93 2.32 4.12 6.89 6.18 13.7 6.18s11.3-1.8 13.48-5.39c2.25-3.67 3.37-11.12 3.37-22.35v-125.89h22.91v125.89c0 18.87-2.88 31.63-8.65 38.3-6.89 7.56-17.41 11.34-31.56 11.34-15.57 0-26.54-4.87-32.91-14.6-4.42-6.66-6.63-19.47-6.63-38.41v-122.52zM3212.13 1621.95h23.36v173.4h-23.36v-173.4zM3248.4 1621.95h76.03v20.44h-26.17v152.96h-22.91v-152.96h-26.95v-20.44zM3337.35 1621.95h23.36v153.63h38.18v19.77h-61.54v-173.4zM3447.41 1621.95h18.19l37.17 173.4h-23.13l-6.51-33.8h-34.37l-6.63 33.8h-22.46l37.74-173.4zm22.35 121.51l-5.17-27.63c-3.44-18.79-6.25-38.86-8.42-60.2a611.59 611.59 0 0 1-4.04 31.61c-1.65 10.67-3.59 22-5.84 33.97l-4.27 22.24h27.74zM3541.18 1621.95h18.19l37.17 173.4h-23.13l-6.51-33.8h-34.37l-6.63 33.8h-22.46l37.74-173.4zm22.35 121.51l-5.17-27.63c-3.44-18.79-6.25-38.86-8.42-60.2a611.59 611.59 0 0 1-4.04 31.61c-1.65 10.67-3.59 22-5.84 33.97l-4.27 22.24h27.74zM3592.73 1621.95h76.03v20.44h-26.17v152.96h-22.91v-152.96h-26.95v-20.44zM3744.34 1625.54v22.8c-7.11-5.09-13.52-7.64-19.2-7.64-6.14 0-11.16 2.17-15.05 6.51-3.89 4.12-5.84 9.62-5.84 16.51 0 6.06 1.38 11.27 4.16 15.61 1.42 2.32 3.76 5.32 7.02 8.98 3.26 3.67 7.47 8.09 12.63 13.25 9.51 9.66 15.98 18.01 19.43 25.04 3.44 6.81 5.17 15.16 5.17 25.04 0 13.4-3.78 24.45-11.34 33.13-7.56 8.46-17.26 12.69-29.09 12.69-9.96 0-18.46-2.73-25.49-8.2v-23.13c8.31 6.06 15.87 9.1 22.69 9.1 6.36 0 11.34-2.11 14.94-6.34 3.59-4.23 5.39-9.98 5.39-17.24 0-6.29-1.39-11.94-4.16-16.96-1.42-2.4-3.41-5.15-5.95-8.25-2.55-3.11-5.73-6.57-9.55-10.39-5.92-5.84-10.82-11.01-14.71-15.5-3.89-4.49-6.78-8.42-8.65-11.79-3.59-6.59-5.39-14.9-5.39-24.93 0-13.55 3.52-24.29 10.56-32.23 7.11-8.01 16.66-12.02 28.64-12.02 8.29.01 16.23 1.99 23.79 5.96zM3772.31 1621.95h62.1v19.77h-38.75v54.92h34.37v19.77h-34.37v59.18h38.75v19.77h-62.1v-173.41zM3855.86 1621.95h30.77c12.73 0 22.2 3.03 28.41 9.1 7.86 7.86 11.79 19.88 11.79 36.05 0 12.43-2.08 22.4-6.23 29.93-4.15 7.52-10.09 12.18-17.8 13.98l31.89 84.34H3911l-31.78-84.9v84.9h-23.36v-173.4zm23.36 76.81c9.06 0 15.46-2.09 19.2-6.29 3.74-4.19 5.62-11.27 5.62-21.23 0-5.39-.39-10-1.18-13.81-.79-3.82-2.02-6.92-3.71-9.32-1.69-2.4-3.86-4.16-6.51-5.28-2.66-1.12-5.82-1.68-9.49-1.68h-3.93v57.61zM3939.19 1621.95h23.02l10.44 64.01 1.8 11.57 3.71 25.16c.6 4.27 1.14 8.16 1.63 11.68.49 3.52.92 6.7 1.29 9.55l1.12 8.54c.22-1.72.41-3.26.56-4.6.15-1.35.3-2.47.45-3.37l3.03-20.1 3.93-26.39c.37-2.4.73-4.6 1.07-6.63.34-2.02.66-3.82.96-5.39l11.23-64.01h21.79l-34.03 173.4h-18.53l-33.47-173.42zM4038.02 1621.95h23.36v173.4h-23.36v-173.4zM4156.16 1624.75v21c-5.99-2.92-11.01-4.38-15.05-4.38-5.54 0-10.29 1.37-14.26 4.1-3.97 2.73-7.24 6.95-9.83 12.63-2.58 5.69-4.49 12.9-5.73 21.62-1.23 8.72-1.85 19.04-1.85 30.94 0 42.83 10.97 64.24 32.91 64.24 3.82 0 8.42-1.2 13.81-3.59v21.45c-5.62 3.14-11.9 4.72-18.87 4.72-35.11 0-52.67-28.67-52.67-86.03 0-31 4.29-54.06 12.86-69.18 8.57-15.12 21.69-22.69 39.36-22.69 6.52.01 12.96 1.73 19.32 5.17zM4175.82 1621.95h62.1v19.77h-38.75v54.92h34.37v19.77h-34.37v59.18h38.75v19.77h-62.1v-173.41z"/></g></svg>
