<?xml version="1.0" standalone="no"?>
<!DOCTYPE svg PUBLIC "-//W3C//DTD SVG 20010904//EN"
 "http://www.w3.org/TR/2001/REC-SVG-20010904/DTD/svg10.dtd">
<svg version="1.0" xmlns="http://www.w3.org/2000/svg"
 width="384.000000pt" height="384.000000pt" viewBox="0 0 384.000000 384.000000"
 preserveAspectRatio="xMidYMid meet">
<metadata>
Created by potrace 1.11, written by Peter Selinger 2001-2013
</metadata>
<g transform="translate(0.000000,384.000000) scale(0.100000,-0.100000)"
fill="#000000" stroke="none">
<path d="M3337 2633 c-4 -3 -7 -15 -7 -26 0 -11 -16 -37 -35 -59 l-36 -39 21
-26 c25 -32 25 -40 -1 -48 -12 -4 -72 -37 -133 -74 -61 -37 -133 -72 -161 -79
-27 -7 -79 -31 -115 -52 -138 -83 -178 -95 -355 -105 -55 -3 -127 -8 -160 -10
-33 -2 -105 -7 -160 -10 -175 -11 -176 -11 -221 -59 -63 -69 -114 -174 -118
-245 -6 -96 -58 -167 -157 -212 -19 -9 -55 -37 -80 -63 -24 -26 -80 -68 -124
-94 -71 -43 -80 -51 -80 -78 0 -28 1 -29 45 -26 31 2 56 11 80 31 19 15 49 35
65 43 35 18 95 33 95 23 0 -11 -22 -49 -67 -117 -38 -55 -44 -71 -38 -95 l7
-28 67 75 c140 158 213 224 268 243 29 10 58 20 65 21 58 12 147 62 233 132
117 94 119 94 301 31 91 -32 110 -35 185 -32 92 4 196 13 219 20 70 19 218 26
300 13 72 -11 140 -45 141 -71 3 -61 7 -134 8 -148 0 -9 10 -28 22 -43 17 -22
24 -24 41 -15 19 10 20 17 15 114 -4 57 -7 107 -8 112 -5 27 31 56 91 73 26 8
32 4 77 -48 63 -73 92 -102 103 -102 4 0 15 -3 24 -6 9 -4 29 8 51 31 21 20
35 37 33 39 -67 43 -94 64 -146 115 -35 33 -73 62 -85 62 -12 1 -33 3 -47 4
-14 2 -52 4 -85 6 -67 2 -87 7 -80 19 4 7 14 158 15 222 0 10 11 25 24 33 29
19 61 9 105 -34 39 -38 95 -42 129 -11 33 31 28 64 -13 96 -20 15 -32 31 -28
35 4 4 34 1 65 -8 55 -15 59 -15 78 2 11 10 20 28 20 41 0 24 -54 78 -90 89
-12 4 -19 12 -17 19 8 21 -19 72 -50 94 -16 11 -50 26 -76 32 -25 7 -46 15
-45 19 6 21 -20 54 -65 84 -29 19 -64 49 -78 66 -14 17 -29 28 -32 24z"/>
<path d="M1167 2322 c-63 -43 -104 -60 -164 -68 -58 -8 -168 -7 -193 1 -10 3
-27 7 -37 9 -10 2 -54 13 -98 24 -219 55 -292 45 -384 -51 l-44 -46 -92 6
c-73 4 -98 2 -123 -11 -18 -9 -32 -21 -32 -27 0 -18 55 -30 111 -24 53 6 58 5
77 -20 13 -16 19 -35 16 -48 -8 -33 -6 -74 3 -91 4 -8 42 -43 83 -78 63 -54
197 -208 208 -239 2 -5 -7 -13 -20 -18 -30 -11 -53 -38 -66 -78 -10 -29 -9
-33 6 -33 9 1 28 7 42 15 40 23 62 18 124 -29 62 -46 102 -57 155 -44 41 11
39 29 -9 68 -56 45 -40 58 45 35 70 -19 106 -12 120 24 7 19 -20 41 -50 41
-25 0 -86 19 -99 30 -10 10 50 126 69 134 30 11 165 -58 165 -85 0 -8 -96 -2
-112 7 -8 5 -38 -6 -38 -15 0 -13 46 -57 72 -68 15 -7 49 -15 76 -19 43 -5 52
-3 81 22 46 38 52 61 30 106 -10 20 -26 41 -35 46 -13 7 -11 14 18 43 18 19
60 57 93 84 32 28 82 71 110 97 62 59 86 65 163 39 71 -24 92 -26 115 -8 16
11 16 15 -8 46 -13 19 -24 36 -22 37 1 1 23 5 49 8 67 9 77 14 73 39 -6 27
-11 31 -74 53 -41 15 -59 28 -77 56 -13 20 -33 42 -45 49 -12 6 -69 12 -127
13 -105 2 -105 2 -155 -32z"/>
</g>
</svg>
